HIERARCHY
ROOT Hips
{
   OFFSET 0.00000 0.00000 0.00000
   CHANNELS 6 Xposition Yposition Zposition Zrotation Xrotation Yrotation
   JOINT RightUpLeg
   {
      OFFSET -10.734961 -10.400485 0.121982
      CHANNELS 3 Zrotation Xrotation Yrotation
      JOINT RightLeg
      {
         OFFSET 0.000000 -53.307237 1.647240
         CHANNELS 3 Zrotation Xrotation Yrotation
         JOINT RightFoot
         {
            OFFSET 0.304259 -50.510883 -1.752708
            CHANNELS 3 Zrotation Xrotation Yrotation
            JOINT RightToes
            {
               OFFSET 0.048000 -5.298108 10.198920
               CHANNELS 3 Zrotation Xrotation Yrotation
               End Site
               {
                  OFFSET -0.096000 -0.164938 11.735748
               }
            }
         }
      }
   }
   JOINT Spine
   {
      OFFSET 0.000000 14.268601 0.000000
      CHANNELS 3 Zrotation Xrotation Yrotation
      JOINT Spine1
      {
         OFFSET 0.000000 30.788881 0.153196
         CHANNELS 3 Zrotation Xrotation Yrotation
         JOINT HEad
         {
            OFFSET 0.000000 10.480993 0.013609
            CHANNELS 3 Zrotation Xrotation Yrotation
            End Site
            {
               OFFSET -0.348000 15.329041 3.016740
            }
         }
         JOINT LeftShoulder1
         {
            OFFSET 10.788001 -0.434702 -0.264000
            CHANNELS 3 Zrotation Xrotation Yrotation
            JOINT LeftArm
            {
               OFFSET 12.339240 -0.004056 0.386548
               CHANNELS 3 Zrotation Xrotation Yrotation
               JOINT LeftForeArm
               {
                  OFFSET 39.320280 0.118973 -1.709208
                  CHANNELS 3 Zrotation Xrotation Yrotation
                  JOINT LeftHand
                  {
                     OFFSET 33.077163 0.102434 1.226592
                     CHANNELS 3 Zrotation Xrotation Yrotation
                     End Site
                     {
                        OFFSET 20.093162 -0.720000 1.803492
                     }
                  }
               }
            }
         }
         JOINT RightShoulder
         {
            OFFSET -10.788001 -0.434702 -0.264000
            CHANNELS 3 Zrotation Xrotation Yrotation
            JOINT RightArm
            {
               OFFSET -12.339240 -0.004056 0.386548
               CHANNELS 3 Zrotation Xrotation Yrotation
               JOINT RightForeArm
               {
                  OFFSET -39.476518 0.118973 -1.709208
                  CHANNELS 3 Zrotation Xrotation Yrotation
                  JOINT RightHand
                  {
                     OFFSET -32.990522 0.102434 1.226592
                     CHANNELS 3 Zrotation Xrotation Yrotation
                     End Site
                     {
                        OFFSET -19.957442 -0.720000 1.803492
                     }
                  }
               }
            }
         }
      }
   }
   JOINT LeftUpLeg
   {
      OFFSET 10.734961 -10.400485 0.121982
      CHANNELS 3 Zrotation Xrotation Yrotation
      JOINT LeftLeg
      {
         OFFSET 0.000000 -53.307237 1.647240
         CHANNELS 3 Zrotation Xrotation Yrotation
         JOINT LeftFoot
         {
            OFFSET -0.304259 -50.510883 -1.752708
            CHANNELS 3 Zrotation Xrotation Yrotation
            JOINT LeftToes
            {
               OFFSET -0.048000 -5.298108 10.198920
               CHANNELS 3 Zrotation Xrotation Yrotation
               End Site
               {
                  OFFSET 0.096000 -0.056938 11.735748
               }
            }
         }
      }
   }
}
MOTION
Frames: 9
Frame Time: 0.016667
-125.902451 54.459781 292.649074 1.215343 -6.767338 -42.485655 -26.949626 -44.999117 -28.548119 -154.451314 48.864212 141.746711 90.763768 12.940616 16.712329 -5.294531 -23.859084 -6.751061 0.843318 6.680179 -12.607100 1.784809 -4.571418 7.880441 -47.907367 16.686166 71.789270 -2.938135 -53.996388 41.836879 -70.846813 -18.534688 -19.896539 -30.203605 81.061785 -82.101025 55.654543 -17.193075 -19.572590 56.707731 70.327220 -15.482775 103.178989 -29.706668 130.964301 13.070518 93.789487 112.774565 -34.650844 4.506480 -37.372340 85.664376 -65.160367 81.732339 22.779903 86.774487 -9.504822 -17.157664 -22.983254 -16.199025 1.079894 22.741472 7.587830
-126.619080 56.527433 292.397380 2.413452 -6.910274 -39.761622 -27.558485 -42.896901 -30.228952 -152.429673 50.299972 139.102690 91.283299 12.967119 17.199499 -5.255650 -24.139909 -7.160353 1.860059 6.100738 -13.245598 1.186291 -4.231128 8.052214 -47.697680 20.232660 71.434216 -2.762878 -54.550576 41.667514 -70.626526 -16.281501 -18.613498 -30.022721 80.044326 -82.454467 55.473475 -17.411655 -18.214637 57.523894 70.271063 -16.164804 102.838060 -28.578394 131.993474 12.760870 93.830892 112.017739 -33.122091 3.855776 -36.702144 84.401652 -64.973445 84.857232 17.222887 88.605817 -8.647671 -13.808040 -23.546883 -16.104340 1.063994 21.892399 7.296538
-127.375753 58.496751 292.367149 2.841335 -6.834680 -37.203402 -27.172400 -40.327752 -30.509461 -151.050030 53.161572 137.608982 91.237230 13.020935 17.469484 -5.099925 -24.652227 -8.227940 3.130000 5.169554 -13.783926 0.366971 -3.753862 8.095943 -47.696232 23.097705 70.863390 -2.296367 -54.846562 41.191433 -70.913169 -13.400187 -17.444749 -30.243207 78.708846 -82.911270 55.675584 -17.976921 -15.860486 57.957557 70.216435 -17.421309 103.771870 -27.750796 132.185047 12.954635 93.309769 111.832887 -32.477444 3.611358 -35.803981 79.676322 -64.225819 86.204828 13.838859 90.880591 -8.252948 -7.896214 -24.231343 -15.511044 1.048235 20.802157 7.053520
-128.120268 60.585856 292.212272 2.777543 -6.726273 -35.532874 -26.607885 -38.600958 -31.114790 -149.993263 55.908708 136.135547 90.831646 12.854092 17.509740 -4.898635 -25.547165 -9.850936 4.029173 4.317343 -13.502130 -1.132108 -3.488309 8.817661 -47.599564 24.951917 70.135777 -1.686567 -55.855077 40.513264 -71.453040 -10.417713 -17.262441 -30.235024 77.380320 -83.267150 55.620098 -18.545429 -13.868525 58.240279 71.000752 -18.673488 105.105587 -26.101956 131.921334 12.920328 93.057134 111.518903 -32.011898 3.604809 -34.832373 74.559909 -64.079756 84.677591 19.287658 90.246777 -14.980673 -6.082342 -24.602130 -15.329767 0.999359 20.332356 6.602557
-128.823870 62.702040 291.978317 2.904137 -5.976108 -34.410964 -26.019788 -38.289938 -31.698696 -149.360637 58.796953 135.020723 90.063796 12.330667 17.358784 -4.687684 -26.873417 -11.964163 5.083260 4.812706 -13.372673 -2.856756 -3.538726 9.281437 -47.601904 26.409066 67.914763 -1.723692 -56.417827 39.542007 -72.279302 -6.753078 -16.757369 -30.711748 77.003744 -84.206896 55.430639 -19.185119 -12.201441 58.955987 71.108136 -19.389343 106.693586 -24.845691 132.182534 12.976304 92.546379 111.307809 -31.722834 3.646804 -33.882875 69.388800 -64.982106 81.228421 26.833470 87.901919 -22.884262 -4.176080 -24.857101 -15.169903 0.933440 20.269461 5.969021
-129.411104 65.081967 291.678272 2.469890 -5.333319 -34.483713 -25.265968 -38.208136 -31.954227 -148.499719 62.311625 134.582758 88.953536 11.653984 17.229320 -4.460945 -28.472735 -14.419672 6.467247 4.275165 -13.395952 -4.048338 -3.244332 9.559818 -47.453002 27.900495 64.299599 -1.935007 -57.081335 39.792774 -72.432257 -4.732358 -16.870682 -30.466267 76.038918 -84.636870 54.860807 -19.803722 -11.179703 60.112898 71.313841 -19.655483 107.510429 -22.912829 133.096017 12.859724 92.591206 110.893203 -30.958280 3.486277 -32.263375 63.504674 -65.462698 75.878074 33.080249 84.483238 -29.217493 -3.344139 -26.487192 -15.262900 0.892745 19.071553 5.509551
-129.892347 67.449364 291.474777 1.137758 -4.279176 -34.663278 -23.299676 -37.482490 -31.774675 -147.528521 65.203144 134.416333 88.395441 10.748368 17.132578 -4.470593 -30.357701 -16.475808 7.311277 4.264482 -13.441402 -4.884395 -3.506775 9.770704 -46.618746 28.870182 60.818586 -2.789960 -57.924013 40.376072 -72.838087 -2.946489 -17.057178 -30.023903 74.505233 -84.909941 54.470035 -20.673415 -10.443844 60.937855 71.937560 -19.863679 108.136914 -21.004374 134.097336 12.389973 93.080821 109.889889 -29.815777 3.352369 -31.783233 56.838130 -65.442706 69.465947 37.529280 79.796724 -33.372099 -3.463160 -28.560117 -15.573834 0.888362 16.268674 5.392867
-130.217836 69.799556 291.189838 0.126006 -3.411829 -34.530926 -21.091773 -36.213127 -30.595627 -146.665922 68.623839 134.453981 87.921439 9.351618 17.590637 -4.829395 -32.611227 -17.869404 9.049595 3.964075 -13.415386 -4.284769 -5.018078 9.990146 -45.084118 29.396735 57.487428 -3.420857 -58.528779 41.340106 -72.931954 -1.808108 -17.219750 -29.123718 72.607821 -84.776083 54.422609 -21.853960 -10.090131 61.290231 72.787304 -19.451356 107.750933 -18.889689 135.950367 11.848411 94.835093 108.857294 -28.979943 3.213362 -30.946187 49.237792 -65.136195 63.518553 40.141517 73.997313 -35.589131 -4.152568 -29.352642 -16.169556 0.906513 13.757092 5.346117
-130.296438 72.459911 290.778194 -0.755686 -2.753042 -32.467308 -17.954342 -34.843343 -27.977459 -146.633807 72.542025 134.661196 87.252859 7.045844 17.954856 -5.452454 -35.220263 -18.943636 9.872289 4.526502 -14.782860 -4.284085 -4.679174 9.019639 -43.476087 30.466557 54.124366 -3.709609 -58.132157 42.277488 -73.700220 -0.316053 -16.541400 -28.253245 71.290147 -85.149387 54.461299 -23.231504 -10.482756 61.218009 73.574163 -19.780409 107.811107 -16.484769 137.538071 11.363389 94.976594 107.815602 -27.978900 3.014415 -30.442320 42.033981 -64.334030 59.884196 40.384573 67.296932 -38.494769 -5.689827 -30.858467 -17.932827 0.911227 11.093267 5.013118
